<?xml version="1.0" encoding="UTF-8" standalone="no"?><!DOCTYPE svg PUBLIC "-//W3C//DTD SVG 1.1//EN" "http://www.w3.org/Graphics/SVG/1.1/DTD/svg11.dtd"><svg width="100%" height="100%" viewBox="0 0 1280 640" version="1.1" xmlns="http://www.w3.org/2000/svg" xmlns:xlink="http://www.w3.org/1999/xlink" xml:space="preserve" xmlns:serif="http://www.serif.com/" style="fill-rule:evenodd;clip-rule:evenodd;stroke-linejoin:round;stroke-miterlimit:2;"><g><path d="M1498.68,-542.655l-1714.04,561.441l335.485,1024.21l1714.04,-561.441l-335.485,-1024.21Z" style="fill:url(#_Radial1);"/><path d="M1545.7,-558.056l-1761.06,576.842l335.485,1024.21l1761.06,-576.842l-335.485,-1024.21Z" style="fill-opacity:0.69;"/></g><path d="M200.947,376.043c-28.722,22.302 -53.026,44.979 -61.664,71.895c-21.889,68.205 47.963,109.982 95.318,102.13c3.53,-0.585 7.332,-1.664 11.339,-3.165l-9.682,-20.321c-1.843,0.583 -3.624,1.024 -5.334,1.308c-34.359,5.696 -86.116,-23.596 -70.235,-73.082c4.643,-14.466 15.009,-27.179 28.06,-39.443c7.439,-6.99 15.747,-13.792 24.519,-20.566l-12.321,-18.756Zm75.393,126.797c-1.724,1.304 -3.453,2.586 -5.179,3.838c-5.301,3.847 -10.541,7.429 -15.603,10.528l9.659,20.272c6.241,-3.649 12.684,-7.914 19.147,-12.603c1.331,-0.966 2.664,-1.949 3.996,-2.946l-12.02,-19.089Zm14.98,-11.906l12.073,19.172c32.215,-26.474 60.792,-56.721 60.792,-56.721c4.259,-4.511 4.054,-11.631 -0.457,-15.89c-4.511,-4.259 -11.631,-4.055 -15.89,0.456c-0,0 -26.346,27.924 -56.518,52.983Zm-158.301,-243.877c-78.737,75.323 -152.632,187.225 -152.632,187.225c-3.417,5.178 -1.988,12.157 3.19,15.574c5.178,3.418 12.156,1.989 15.573,-3.189c0,-0 70.669,-107.124 146.777,-180.83l-12.908,-18.78Zm194.311,-32.177l-16.497,16.027c5.37,10.532 6.424,23.282 0.58,37.453c-13.139,31.857 -41.749,56.087 -71.465,78.475l12.345,18.791c33.261,-25.217 65.141,-52.899 79.903,-88.695c9.834,-23.844 6.265,-45.268 -4.866,-62.051Zm-175.787,15.273l12.797,18.619c26.999,-23.843 53.846,-42.026 77.759,-47.248c5.049,-1.102 10.313,-1.514 15.602,-1.293l9.998,-21.473c-10.157,-1.536 -20.517,-1.355 -30.396,0.802c-26.213,5.724 -56.034,24.825 -85.76,50.593Zm152.744,-8.823l15.935,-15.481c-3.334,-3.612 -7.044,-6.928 -11.049,-9.917l-9.619,20.659c1.685,1.492 3.268,3.072 4.733,4.739Z" style="fill:#220336;"/><g><clipPath id="_clip2"><path d="M596.107,140.967c-3.984,0.825 -7.553,3.43 -9.454,7.375l-17.432,36.169l-75.458,75.458l-10.901,-10.902c-5.025,-5.025 -13.185,-5.025 -18.21,0l-129.545,129.546c-5.025,5.025 -5.025,13.184 0,18.209l3.429,3.429l-29.065,29.064c-3.773,3.773 -3.773,9.899 0,13.672l54.688,54.688c3.773,3.772 9.899,3.772 13.672,-0l29.064,-29.065l1.05,1.05c5.025,5.025 13.184,5.025 18.209,-0l129.546,-129.546c5.025,-5.025 5.025,-13.184 -0,-18.209l-8.89,-8.89l78.823,-78.822l32.077,-15.239c3.449,-1.639 5.886,-4.551 7.015,-7.908c0.46,-1.253 0.711,-2.606 0.711,-4.017l-0,-54.824c-0,-6.443 -5.232,-11.675 -11.675,-11.675l-54.484,0c-1.098,0 -2.162,0.152 -3.17,0.437Z"/></clipPath><g clip-path="url(#_clip2)"><path d="M412.572,474.256l-75.785,-75.785l-46.865,46.865l75.784,75.785l46.866,-46.865Z" style="fill:#7f0d76;"/><path d="M633.843,398.471l-212.992,-212.992l-148.829,148.829l212.992,212.992l148.829,-148.829Z" style="fill:#b80094;"/><path d="M722.074,185.496l-103.351,-103.35l-151.442,151.441l103.351,103.351l151.442,-151.442Z" style="fill:#d6d3c5;"/><path d="M678.522,248.996l-125.8,-125.8l-17.334,17.334l125.8,125.801l17.334,-17.335Z" style="fill:#b0ac9b;"/><path d="M733.912,209.542l-125.8,-125.8l-29.173,29.173l125.8,125.8l29.173,-29.173Z" style="fill:#b0ac9b;"/><path d="M551.626,487.394l-220.106,-220.106l-24.879,24.879l220.106,220.106l24.879,-24.879Z" style="fill:#7f0d76;"/><path d="M699.498,105.366l-379.319,379.319l80.113,80.113l379.319,-379.319l-80.113,-80.113Z" style="fill-opacity:0.2;"/></g></g><g transform="matrix(1.21407,0,0,1.21407,-161.646,-191.247)"><text x="734.226px" y="411.533px" style="font-family:'FantasticPersonalUse', 'Fantastic Personal Use';font-size:132.083px;fill:#ff87fb;">Audio</text><text x="734.226px" y="547.315px" style="font-family:'FantasticPersonalUse', 'Fantastic Personal Use';font-size:132.083px;fill:#ff87fb;">Warp</text></g><path d="M446.77,137.573c0.383,-1.253 1.3,-2.074 2.319,-2.074c1.019,0 1.936,0.821 2.319,2.074l6.808,22.282l16.775,9.043c0.944,0.509 1.562,1.727 1.562,3.08c-0,1.354 -0.618,2.572 -1.562,3.081l-16.775,9.043l-6.808,22.282c-0.383,1.253 -1.3,2.074 -2.319,2.074c-1.019,-0 -1.936,-0.821 -2.319,-2.074l-6.808,-22.282l-16.775,-9.043c-0.944,-0.509 -1.562,-1.727 -1.562,-3.081c0,-1.353 0.618,-2.571 1.562,-3.08l16.775,-9.043l6.808,-22.282Z" style="fill:#ff87fb;"/><path d="M1103.83,185.289c0.309,-1.012 1.048,-1.673 1.87,-1.673c0.822,-0 1.562,0.661 1.871,1.673l5.492,17.974l13.532,7.295c0.762,0.411 1.26,1.393 1.26,2.485c-0,1.091 -0.498,2.074 -1.26,2.485l-13.532,7.295l-5.492,17.974c-0.309,1.011 -1.049,1.673 -1.871,1.673c-0.822,-0 -1.561,-0.662 -1.87,-1.673l-5.493,-17.974l-13.532,-7.295c-0.761,-0.411 -1.259,-1.394 -1.259,-2.485c-0,-1.092 0.498,-2.074 1.259,-2.485l13.532,-7.295l5.493,-17.974Z" style="fill:#ff87fb;"/><path d="M625.306,332.664c0.599,-1.913 2.033,-3.164 3.626,-3.164c1.593,-0 3.027,1.251 3.626,3.164l10.644,33.992l26.228,13.796c1.476,0.777 2.441,2.635 2.441,4.699c0,2.065 -0.965,3.923 -2.441,4.699l-26.228,13.797l-10.644,33.992c-0.599,1.913 -2.033,3.164 -3.626,3.164c-1.593,0 -3.027,-1.251 -3.626,-3.164l-10.645,-33.992l-26.227,-13.797c-1.476,-0.776 -2.442,-2.634 -2.442,-4.699c0,-2.064 0.966,-3.922 2.442,-4.699l26.227,-13.796l10.645,-33.992Z" style="fill:#ff87fb;"/><path d="M525.578,57.543c0.252,-0.864 0.854,-1.43 1.523,-1.43c0.669,-0 1.271,0.566 1.522,1.43l4.47,15.368l11.014,6.237c0.619,0.351 1.025,1.191 1.025,2.125c-0,0.933 -0.406,1.773 -1.025,2.124l-11.014,6.237l-4.47,15.368c-0.251,0.865 -0.853,1.431 -1.522,1.431c-0.669,-0 -1.271,-0.566 -1.523,-1.431l-4.469,-15.368l-11.014,-6.237c-0.62,-0.351 -1.025,-1.191 -1.025,-2.124c-0,-0.934 0.405,-1.774 1.025,-2.125l11.014,-6.237l4.469,-15.368Z" style="fill:#ff87fb;"/><path d="M556.113,79.612c0.191,-0.627 0.65,-1.037 1.159,-1.037c0.509,-0 0.968,0.41 1.16,1.037l3.404,11.141l8.387,4.521c0.472,0.255 0.781,0.864 0.781,1.541c-0,0.676 -0.309,1.285 -0.781,1.54l-8.387,4.521l-3.404,11.141c-0.192,0.627 -0.651,1.037 -1.16,1.037c-0.509,0 -0.968,-0.41 -1.159,-1.037l-3.405,-11.141l-8.387,-4.521c-0.472,-0.255 -0.781,-0.864 -0.781,-1.54c0,-0.677 0.309,-1.286 0.781,-1.541l8.387,-4.521l3.405,-11.141Z" style="fill:#ff87fb;"/><path d="M1069.76,61.186c-0.456,-1.396 -1.548,-2.308 -2.762,-2.308c-1.213,-0 -2.305,0.912 -2.761,2.308l-8.107,24.798l-19.976,10.064c-1.124,0.567 -1.86,1.922 -1.86,3.428c0,1.506 0.736,2.862 1.86,3.429l19.976,10.064l8.107,24.798c0.456,1.396 1.548,2.308 2.761,2.308c1.214,0 2.306,-0.912 2.762,-2.308l8.107,-24.798l19.976,-10.064c1.124,-0.567 1.859,-1.923 1.859,-3.429c0,-1.506 -0.735,-2.861 -1.859,-3.428l-19.976,-10.064l-8.107,-24.798Z" style="fill:#ff87fb;"/><path d="M1014.38,96.797c-0.347,-1.012 -1.179,-1.674 -2.103,-1.674c-0.924,0 -1.755,0.662 -2.103,1.674l-6.174,17.977l-15.213,7.296c-0.856,0.411 -1.416,1.394 -1.416,2.485c-0,1.092 0.56,2.075 1.416,2.486l15.213,7.296l6.174,17.977c0.348,1.012 1.179,1.674 2.103,1.674c0.924,-0 1.756,-0.662 2.103,-1.674l6.175,-17.977l15.213,-7.296c0.856,-0.411 1.416,-1.394 1.416,-2.486c-0,-1.091 -0.56,-2.074 -1.416,-2.485l-15.213,-7.296l-6.175,-17.977Z" style="fill:#ff87fb;"/><defs><radialGradient id="_Radial1" cx="0" cy="0" r="1" gradientUnits="userSpaceOnUse" gradientTransform="matrix(1714.04,-561.441,335.485,1024.21,-47.6168,530.891)"><stop offset="0" style="stop-color:#db55de;stop-opacity:1"/><stop offset="1" style="stop-color:#9187ff;stop-opacity:1"/></radialGradient></defs></svg>