<?xml version="1.0" encoding="UTF-8" standalone="no"?><!DOCTYPE svg PUBLIC "-//W3C//DTD SVG 1.1//EN" "http://www.w3.org/Graphics/SVG/1.1/DTD/svg11.dtd"><svg width="100%" height="100%" viewBox="0 0 500 500" version="1.1" xmlns="http://www.w3.org/2000/svg" xmlns:xlink="http://www.w3.org/1999/xlink" xml:space="preserve" xmlns:serif="http://www.serif.com/" style="fill-rule:evenodd;clip-rule:evenodd;stroke-linejoin:round;stroke-miterlimit:2;"><rect x="-29.769" y="-24.055" width="547.692" height="554.521" style="fill:url(#_Radial1);"/><rect x="-29.769" y="-24.055" width="562.716" height="554.521" style="fill-opacity:0.69;"/><path d="M84.679,281.097c-21.293,16.534 -39.31,33.345 -45.714,53.299c-16.227,50.563 35.557,81.534 70.663,75.714c2.617,-0.434 5.436,-1.234 8.407,-2.347l-7.178,-15.064c-1.366,0.431 -2.687,0.758 -3.955,0.969c-25.471,4.223 -63.842,-17.493 -52.068,-54.179c3.442,-10.724 11.127,-20.149 20.802,-29.241c5.515,-5.182 11.675,-10.224 18.178,-15.246l-9.135,-13.905Zm55.892,94.001c-1.278,0.966 -2.56,1.917 -3.839,2.845c-3.93,2.851 -7.815,5.507 -11.567,7.804l7.161,15.029c4.626,-2.705 9.403,-5.867 14.194,-9.343c0.987,-0.716 1.975,-1.445 2.962,-2.184l-8.911,-14.151Zm11.106,-8.827l8.95,14.213c23.882,-19.626 45.067,-42.05 45.067,-42.05c3.158,-3.344 3.006,-8.623 -0.338,-11.78c-3.344,-3.157 -8.623,-3.006 -11.78,0.339c-0,-0 -19.531,20.701 -41.899,39.278Zm-117.356,-180.797c-58.371,55.84 -113.153,138.799 -113.153,138.799c-2.533,3.838 -1.474,9.011 2.365,11.545c3.838,2.534 9.012,1.474 11.545,-2.365c0,0 52.39,-79.415 108.812,-134.057l-9.569,-13.922Zm144.051,-23.854l-12.23,11.881c3.982,7.808 4.763,17.26 0.43,27.766c-9.74,23.617 -30.95,41.579 -52.979,58.177l9.151,13.93c24.658,-18.694 48.292,-39.216 59.236,-65.753c7.29,-17.677 4.644,-33.559 -3.608,-46.001Zm-130.318,11.322l9.487,13.803c20.016,-17.676 39.918,-31.155 57.646,-35.027c3.743,-0.817 7.645,-1.122 11.567,-0.958l7.411,-15.919c-7.529,-1.139 -15.21,-1.005 -22.533,0.594c-19.433,4.244 -41.541,18.404 -63.578,37.507Zm113.235,-6.541l11.814,-11.476c-2.471,-2.678 -5.222,-5.136 -8.191,-7.352l-7.131,15.315c1.249,1.106 2.423,2.278 3.508,3.513Z" style="fill:#220336;"/><g><clipPath id="_clip2"><path d="M377.629,106.824c-2.953,0.613 -5.6,2.543 -7.009,5.468l-12.923,26.814l-55.94,55.94l-8.082,-8.082c-3.725,-3.725 -9.774,-3.725 -13.499,0l-96.038,96.038c-3.725,3.725 -3.725,9.774 -0,13.499l2.542,2.542l-21.547,21.547c-2.797,2.797 -2.797,7.338 -0,10.135l40.542,40.543c2.797,2.797 7.339,2.797 10.136,-0l21.547,-21.547l0.778,0.778c3.725,3.725 9.774,3.725 13.499,0l96.038,-96.038c3.725,-3.725 3.725,-9.774 0,-13.499l-6.59,-6.59l58.435,-58.435l23.78,-11.297c2.557,-1.215 4.363,-3.374 5.201,-5.863c0.34,-0.929 0.526,-1.932 0.526,-2.978l0,-40.643c0,-4.777 -3.878,-8.655 -8.655,-8.655l-40.391,-0c-0.814,-0 -1.603,0.113 -2.35,0.323Z"/></clipPath><g clip-path="url(#_clip2)"><path d="M241.566,353.907l-56.182,-56.183l-34.744,34.743l56.183,56.183l34.743,-34.743Z" style="fill:#7f0d76;"/><path d="M405.604,297.724l-157.9,-157.901l-110.334,110.334l157.901,157.9l110.333,-110.333Z" style="fill:#b80094;"/><path d="M471.014,139.836l-76.619,-76.618l-112.27,112.27l76.618,76.619l112.271,-112.271Z" style="fill:#d6d3c5;"/><path d="M438.727,186.912l-93.261,-93.262l-12.851,12.851l93.261,93.261l12.851,-12.85Z" style="fill:#b0ac9b;"/><path d="M479.79,157.662l-93.261,-93.261l-21.628,21.627l93.262,93.262l21.627,-21.628Z" style="fill:#b0ac9b;"/><path d="M344.653,363.647l-163.174,-163.175l-18.444,18.444l163.175,163.174l18.443,-18.443Z" style="fill:#7f0d76;"/><path d="M454.277,80.432l-281.206,281.206l59.391,59.391l281.207,-281.206l-59.392,-59.391Z" style="fill-opacity:0.2;"/></g></g><path d="M266.919,104.309c0.284,-0.93 0.964,-1.538 1.719,-1.538c0.755,0 1.435,0.608 1.719,1.538l5.048,16.518l12.436,6.704c0.699,0.378 1.157,1.281 1.157,2.284c0,1.003 -0.458,1.906 -1.157,2.283l-12.436,6.705l-5.048,16.518c-0.284,0.929 -0.964,1.538 -1.719,1.538c-0.755,-0 -1.435,-0.609 -1.719,-1.538l-5.047,-16.518l-12.437,-6.705c-0.699,-0.377 -1.157,-1.28 -1.157,-2.283c-0,-1.003 0.458,-1.906 1.157,-2.284l12.437,-6.704l5.047,-16.518Z" style="fill:#ff87fb;"/><path d="M399.276,248.938c0.444,-1.418 1.507,-2.346 2.687,-2.346c1.181,0 2.244,0.928 2.688,2.346l7.892,25.2l19.444,10.228c1.094,0.575 1.809,1.953 1.809,3.483c0,1.531 -0.715,2.908 -1.809,3.484l-19.444,10.228l-7.892,25.2c-0.444,1.418 -1.507,2.345 -2.688,2.345c-1.18,0 -2.243,-0.927 -2.687,-2.345l-7.892,-25.2l-19.444,-10.228c-1.094,-0.576 -1.81,-1.953 -1.81,-3.484c0,-1.53 0.716,-2.908 1.81,-3.483l19.444,-10.228l7.892,-25.2Z" style="fill:#ff87fb;"/><path d="M325.343,44.979c0.186,-0.641 0.633,-1.06 1.129,-1.06c0.495,-0 0.942,0.419 1.128,1.06l3.314,11.393l8.165,4.624c0.459,0.26 0.76,0.883 0.76,1.575c-0,0.692 -0.301,1.314 -0.76,1.575l-8.165,4.624l-3.314,11.392c-0.186,0.641 -0.633,1.061 -1.128,1.061c-0.496,-0 -0.943,-0.42 -1.129,-1.061l-3.314,-11.392l-8.164,-4.624c-0.46,-0.261 -0.761,-0.883 -0.761,-1.575c0,-0.692 0.301,-1.315 0.761,-1.575l8.164,-4.624l3.314,-11.393Z" style="fill:#ff87fb;"/><path d="M347.979,61.34c0.142,-0.465 0.482,-0.769 0.86,-0.769c0.377,-0 0.717,0.304 0.859,0.769l2.524,8.259l6.218,3.352c0.35,0.188 0.579,0.64 0.579,1.142c-0,0.501 -0.229,0.953 -0.579,1.141l-6.218,3.352l-2.524,8.26c-0.142,0.464 -0.482,0.768 -0.859,0.768c-0.378,0 -0.718,-0.304 -0.86,-0.768l-2.523,-8.26l-6.218,-3.352c-0.35,-0.188 -0.579,-0.64 -0.579,-1.141c-0,-0.502 0.229,-0.954 0.579,-1.142l6.218,-3.352l2.523,-8.259Z" style="fill:#ff87fb;"/><defs><radialGradient id="_Radial1" cx="0" cy="0" r="1" gradientUnits="userSpaceOnUse" gradientTransform="matrix(547.692,0,0,554.521,-29.7695,253.206)"><stop offset="0" style="stop-color:#db55de;stop-opacity:1"/><stop offset="1" style="stop-color:#9187ff;stop-opacity:1"/></radialGradient></defs></svg>